# AST/ASF file generated using VICON BodyLanguage
# -----------------------------------------------
:version 1.10
:name VICON
:units
  mass 1.0
  length 0.45
  angle deg
:documentation
   .ast/.asf automatically generated from VICON data using
   VICON BodyBuilder and BodyLanguage model FoxedUp or BRILLIANT.MOD
:root
   order TX TY TZ RX RY RZ
   axis XYZ
   position 0 0 0  
   orientation 0 0 0 
:bonedata
  begin
     id 1 
     name lhipjoint
     direction 0.624716 -0.669793 0.401383 
     length 2.38238 
     axis 0 0 0  XYZ
  end
  begin
     id 2 
     name lfemur
     direction 0.34202 -0.939693 0  
     length 6.4574  
     axis 0 0 20  XYZ
    dof rx ry rz
    limits (-160.0 20.0)
           (-70.0 70.0)
           (-60.0 70.0)
  end
  begin
     id 3 
     name ltibia
     direction 0.34202 -0.939693 0   
     length 7.68739   
     axis 0 0 20   XYZ
    dof rx
    limits (-10.0 170.0)
  end
  begin
     id 4 
     name lfoot
     direction 0.0681309 -0.187188 0.979959   
     length 2.46615   
     axis -90 7.62852e-016 20   XYZ
    dof rx rz
    limits (-45.0 90.0)
           (-70.0 20.0)
  end
  begin
     id 5 
     name ltoes
     direction 1.53566e-011 -4.21819e-011 1   
     length 1.2376   
     axis -90 7.62852e-016 20   XYZ
    dof rx
    limits (-90.0 20.0)
  end
  begin
     id 6 
     name rhipjoint
     direction -0.644473 -0.655875 0.393043   
     length 2.43293  
     axis 0 0 0  XYZ 
  end
  begin
     id 7 
     name rfemur
     direction -0.34202 -0.939693 0   
     length 6.7025   
     axis 0 0 -20   XYZ
    dof rx ry rz
    limits (-160.0 20.0)
           (-70.0 70.0)
           (-70.0 60.0)
  end
  begin
     id 8 
     name rtibia
     direction -0.34202 -0.939693 0   
     length 7.80547   
     axis 0 0 -20   XYZ
    dof rx
    limits (-10.0 170.0)
 end
 begin
     id 9 
     name rfoot
     direction -0.0756734 -0.207911 0.975216   
     length 2.40315  
     axis -90 -7.62852e-016 -20   XYZ
    dof rx rz
    limits (-45.0 90.0)
           (-20.0 70.0)
  end
  begin
     id 10 
     name rtoes
     direction -1.5353e-011 -4.21879e-011 1   
     length 1.20477   
     axis -90 -7.62852e-016 -20   XYZ
    dof rx
    limits (-90.0 20.0)
  end
  begin
     id 11 
     name lowerback
     direction 0.0160353 0.987463 -0.157037   
     length 2.18572   
     axis 0 0 0   XYZ
    dof rx ry rz
    limits (-20.0 45.0)
           (-30.0 30.0)
           (-30.0 30.0)
  end
  begin
     id 12 
     name upperback
     direction -0.00499661 0.999756 0.0215076   
     length 2.18016   
     axis 0 0 0   XYZ
    dof rx ry rz
    limits (-20.0 45.0)
           (-30.0 30.0)
           (-30.0 30.0)
  end
  begin
     id 13 
     name thorax
     direction -0.00921346 0.995333 0.0960619   
     length 2.24923   
     axis 0 0 0   XYZ
    dof rx ry rz
    limits (-20.0 45.0)
           (-30.0 30.0)
           (-30.0 30.0)
  end
  begin
     id 14 
     name lowerneck
     direction 0.0274184 0.991181 0.12965   
     length 1.70911   
     axis 0 0 0   XYZ
    dof rx ry rz
    limits (-20.0 45.0)
           (-30.0 30.0)
           (-30.0 30.0)
  end
  begin
     id 15 
     name upperneck
     direction 0.0015627 0.999959 -0.00893559   
     length 1.69312   
     axis 0 0 0   XYZ
    dof rx ry rz
    limits (-20.0 45.0)
           (-30.0 30.0)
           (-30.0 30.0)
  end
  begin
     id 16
     name head
     direction -0.00230242 0.999856 -0.0168327  
     length 1.80241  
     axis 0 0 0   XYZ
    dof rx ry rz
    limits (-20.0 45.0)
           (-30.0 30.0)
           (-30.0 30.0)
  end
  begin
     id 17 
     name lclavicle
     direction 0.955523 0.290741 -0.0494489  
     length 3.84275  
     axis 0 0 0   XYZ
    dof ry rz
    limits (-20.0 10.0)
           (0.0 20.0)
  end
  begin
     id 18 
     name lhumerus
     direction 1 -4.48967e-011 -3.18382e-028   
     length 5.17714   
     axis 180 -30 -90   XYZ
    dof rx ry rz
    limits (-60.0 90.0)
           (-90.0 90.0)
           (-90.0 90.0)
  end
  begin
     id 19
     name lradius
     direction 1 -4.48968e-011 -2.22911e-027   
     length 3.43679   
     axis 180 -30 -90   XYZ
    dof rx
    limits (-10.0 170.0)
  end
  begin
     id 20
     name lwrist
     direction 1 -4.48951e-011 -6.32245e-027   
     length 1.7184   
     axis 3.57107e-015 90 90   XYZ
    dof ry
    limits (-180.0 0.0)
 end
  begin
     id 21 
     name lhand
     direction 1 -4.48924e-011 -1.26431e-026   
     length 0.573117   
     axis 8.06912e-015 90 90   XYZ
    dof rx rz
    limits (-90.0 90.0)
           (-45.0 45.0)
  end
  begin
     id 22 
     name lfingers
     direction 1 -4.49001e-011 -2.52965e-026   
     length 0.462062   
     axis 1.61381e-014 90 90   XYZ
    dof rx
    limits (0.0 90.0)
  end
  begin
     id 23
     name lthumb
     direction 0.707107 -6.35008e-011 0.707107   
     length 0.663431   
     axis -90 45 -1.62303e-014   XYZ
    dof rx rz
    limits (-45.0 45.0)
           (-45.0 45.0)
  end
  begin
     id 24 
     name rclavicle
     direction -0.963917 0.256881 -0.0698287   
     length 3.73057  
     axis 0 0 0   XYZ 
    dof ry rz
    limits (-10.0 20.0)
           (-20.0 0.0)
  end
  begin
     id 25 
     name rhumerus
     direction -1 -4.48962e-011 -2.73982e-027  
     length 5.23908   
     axis 180 30 90   XYZ
    dof rx ry rz
    limits (-90.0 60.0)
           (-90.0 90.0)
           (-90.0 90.0)
  end
  begin
     id 26 
     name rradius
     direction -1 -4.48968e-011 -4.33218e-027   
     length 3.46485   
     axis 180 30 90   XYZ
    dof rx
    limits (-10.0 170.0)
  end
  begin
     id 27 
     name rwrist
     direction -1 -4.48989e-011 -6.32372e-027   
     length 1.73243   
     axis 3.57107e-015 -90 -90   XYZ
    dof ry
    limits (-180.0 0.0)
  end
  begin
     id 28
     name rhand
     direction -1 -4.48948e-011 -1.26448e-026   
     length 0.608752   
     axis 8.06912e-015 -90 -90   XYZ
    dof rx rz
    limits (-90.0 90.0)
           (-45.0 45.0)
  end
  begin
     id 29
     name rfingers
     direction -1 -4.48962e-011 -2.52913e-026   
     length 0.490792   
     axis 1.61381e-014 -90 -90   XYZ
    dof rx
    limits (0.0 90.0)
  end
  begin
     id 30
     name rthumb
     direction -0.707107 -6.34878e-011 0.707107   
     length 0.704682   
     axis -90 -45 1.62303e-014   XYZ
    dof rx rz
    limits (-45.0 45.0)
           (-45.0 45.0)
  end
:hierarchy
  begin
    root lhipjoint rhipjoint lowerback
    lhipjoint lfemur
    lfemur ltibia
    ltibia lfoot
    lfoot ltoes
    rhipjoint rfemur
    rfemur rtibia
    rtibia rfoot
    rfoot rtoes
    lowerback upperback
    upperback thorax
    thorax lowerneck lclavicle rclavicle
    lowerneck upperneck
    upperneck head
    lclavicle lhumerus
    lhumerus lradius
    lradius lwrist
    lwrist lhand lthumb
    lhand lfingers
    rclavicle rhumerus
    rhumerus rradius
    rradius rwrist
    rwrist rhand rthumb
    rhand rfingers
  end

#!OML:ASF G:\JayActor3\Patient Classification 1\Patient 1\Session 6\male.ASF
:FULLY-SPECIFIED
:DEGREES
479
root 42.7973 14.6546 7.12218 192.321 -40.1121 -181.74
lowerback 30.7444 1.13864 5.40427
upperback 14.8253 -0.0820165 0.282051
thorax 0.107032 -0.904251 -2.75802
lowerneck 5.42295 5.62384 6.91505
upperneck -18.3825 6.61211 -9.39201
head -5.83254 3.26572 -4.52151
rclavicle 7.55382e-014 -1.27222e-014
rhumerus -22.6326 3.83139 -85.5911
rradius 62.1026
rwrist -4.66972
rhand -27.0824 -9.44891
rfingers 7.12502
rthumb -0.499699 -39.4281
lclavicle 7.55382e-014 -1.27222e-014
lhumerus -19.1137 -15.142 78.2703
lradius 60.9768
lwrist 26.0358
lhand -20.0044 11.5362
lfingers 7.12502
lthumb 6.3356 41.4214
rfemur -45.4117 -6.89409 25.0624
rtibia 69.1554
rfoot -31.9352 -13.3364
rtoes -10.8092
lfemur -51.6967 13.5533 -26.4636
ltibia 59.1342
lfoot -19.3274 7.18433
ltoes -1.83474
480
root 42.7565 14.6562 7.08072 192.271 -40.0068 -181.727
lowerback 30.7541 1.14876 5.28606
upperback 14.7822 -0.0915873 0.193096
thorax 0.046922 -0.910371 -2.78526
lowerneck 5.44372 5.75129 6.91221
upperneck -18.4509 6.76997 -9.49478
head -5.83912 3.34993 -4.56379
rclavicle -4.77083e-015 -1.11319e-014
rhumerus -22.7552 3.87824 -85.723
rradius 62.03
rwrist -4.66718
rhand -26.9168 -9.48908
rfingers 7.12502
rthumb -0.339699 -39.4685
lclavicle -4.77083e-015 -1.11319e-014
lhumerus -18.7298 -15.0809 78.0451
lradius 60.7468
lwrist 26.1761
lhand -20.1194 11.6159
lfingers 7.12502
lthumb 6.22451 41.5045
rfemur -45.2279 -6.98095 25.072
rtibia 69.3073
rfoot -31.9493 -13.3463
rtoes -11.2248
lfemur -51.4457 13.567 -26.3853
ltibia 59.2683
lfoot -19.5068 7.33429
ltoes -1.53348
481
root 42.7153 14.66 7.03988 192.235 -39.9143 -181.692
lowerback 30.7336 1.15367 5.2121
upperback 14.7378 -0.0954763 0.100387
thorax 0.000931776 -0.909604 -2.84375
lowerneck 5.45456 5.87183 6.93904
upperneck -18.4625 6.92559 -9.60172
head -5.82495 3.43311 -4.60955
rclavicle 1.94809e-014 -3.97569e-015
rhumerus -22.8506 3.92553 -85.8517
rradius 61.9433
rwrist -4.6936
rhand -26.7156 -9.55438
rfingers 7.12502
rthumb -0.145369 -39.5341
lclavicle 1.94809e-014 -3.97569e-015
lhumerus -18.2708 -15.0806 77.7913
lradius 60.5347
lwrist 26.3084
lhand -20.325 11.6789
lfingers 7.12502
lthumb 6.02606 41.5732
rfemur -45.0869 -7.08112 25.1031
rtibia 69.472
rfoot -31.8997 -13.3642
rtoes -11.7191
lfemur -51.1958 13.574 -26.2875
ltibia 59.3728
lfoot -19.7297 7.44338
ltoes -1.4773
482
root 42.6737 14.6656 6.99988 192.212 -39.8304 -181.634
lowerback 30.6731 1.13963 5.13499
upperback 14.6972 -0.125202 0.0251035
thorax -0.0255769 -0.921886 -2.87384
lowerneck 5.45728 6.01579 6.90726
upperneck -18.4272 7.11115 -9.70552
head -5.79444 3.53606 -4.64374
rclavicle 7.15625e-015 -1.66979e-014
rhumerus -22.8908 4.09047 -85.9592
rradius 61.8361
rwrist -4.7478
rhand -26.4785 -9.636
rfingers 7.12502
rthumb 0.0836408 -39.6157
lclavicle 7.15625e-015 -1.66979e-014
lhumerus -17.7761 -15.0206 77.5411
lradius 60.3543
lwrist 26.3925
lhand -20.607 11.7274
lfingers 7.12502
lthumb 5.75376 41.6293
rfemur -45.0003 -7.1895 25.1541
rtibia 69.6631
rfoot -31.779 -13.362
rtoes -12.2512
lfemur -50.9686 13.5895 -26.1812
ltibia 59.454
lfoot -19.9568 7.5215
ltoes -1.53977
483
root 42.6325 14.6727 6.96068 192.177 -39.7598 -181.5
lowerback 30.5735 1.12288 5.13189
upperback 14.6572 -0.13856 -0.0448125
thorax -0.0299788 -0.920738 -2.94535
lowerneck 5.43907 6.14664 6.91648
upperneck -18.3377 7.28628 -9.81109
head -5.74245 3.63244 -4.68149
rclavicle -2.5842e-014 -8.38871e-014
rhumerus -22.903 4.23277 -86.067
rradius 61.7257
rwrist -4.8045
rhand -26.2093 -9.69688
rfingers 7.12502
rthumb 0.343607 -39.6763
lclavicle -2.5842e-014 -8.38871e-014
lhumerus -17.215 -15.0292 77.2643
lradius 60.2089
lwrist 26.4457
lhand -20.9528 11.7593
lfingers 7.12502
lthumb 5.4199 41.67
rfemur -44.9828 -7.29296 25.2685
rtibia 69.8926
rfoot -31.5711 -13.3456
rtoes -12.8675
lfemur -50.7914 13.6201 -26.0302
ltibia 59.524
lfoot -20.1612 7.58243
ltoes -1.63868
